<svg height='100px' width='100px'  fill="#000000" xmlns="http://www.w3.org/2000/svg" xmlns:xlink="http://www.w3.org/1999/xlink" version="1.1" x="0px" y="0px" viewBox="0 0 100 100" enable-background="new 0 0 100 100" xml:space="preserve"><path fill="#000000" d="M90.096,9.71H50.265v9.167h13.446v9.01H50.265v8.806h13.308v8.874H50.265v8.87h13.308v8.873H50.265v8.872  h13.308v8.872H50.265v9.236h39.83c2.047,0,2.904-0.921,2.904-3.045v-74.49C93,10.629,92.142,9.71,90.096,9.71z M85.756,81.055  H68.011v-8.871h17.745V81.055z M85.756,63.312H68.011v-8.873h17.745V63.312z M85.756,45.567H68.011v-8.875h17.745V45.567z   M85.756,27.82H68.011v-8.873h17.745V27.82z"></path><path fill="#000000" d="M41.644,36.307h-23.65c-2.377,0.001-4.302-1.926-4.302-4.303c0-2.374,1.925-4.302,4.302-4.302h23.65"></path><path fill="#000000" d="M41.644,54.302H11.303C8.925,54.302,7,52.372,7,49.998c0-2.374,1.925-4.302,4.303-4.302h30.341"></path><path fill="#000000" d="M41.768,18.315H28.505c-2.376,0-4.303-1.927-4.303-4.304c0-2.375,1.926-4.302,4.303-4.302h13.263"></path><path fill="#000000" d="M41.644,72.297h-23.65c-2.377,0-4.302-1.927-4.302-4.302s1.925-4.303,4.302-4.303h23.65"></path><path fill="#000000" d="M41.77,90.29H28.505c-2.376,0-4.303-1.928-4.303-4.305c0-2.376,1.926-4.303,4.303-4.303h13.263"></path></svg>