<svg version="1" xmlns="http://www.w3.org/2000/svg" width="933.333" height="933.333" viewBox="0 0 700.000000 700.000000"><path d="M190.5 69.4c-8.3 2.6-14.3 8-18.3 16.6-8.1 17.2 3.4 38.7 22.2 41.5 6.3 1 96.4 1.1 97.3.1.4-.4.7-13.9.8-30.1V68l-49 .1c-36.5 0-50 .4-53 1.3zM351.9 71.2c-.3 14.6 0 60.1.4 60.4.3.3 21.5.5 47.1.6H446V195l-5.7.1c-3.2 0-24.4.1-47.2.2l-41.4.2.1 27.5c.1 15.1.1 29 .1 30.7l.1 3.3h93v62h-93l-.1 2.7v56.5l.1 2.8h93v62h-93l-.1 4.7c-.3 19.5 0 56.6.5 57 .3.3 21.2.5 46.6.5h46l-.2 31.1-.3 31.1h-45.7c-25.1.1-46 .4-46.3.8-.6.5-1 56-.5 63.1 0 .4 64.7.6 143.8.5l143.7-.3 3.6-2.3c2-1.2 4.5-3.9 5.5-6 1.8-3.6 1.9-12.9 2.2-270.2.2-189.9 0-268-.8-271.6-1.3-6.1-5.5-10.9-10.8-12.4-2.4-.6-52.7-1-145.4-1H352l-.1 3.2zm247.7 62.1c.4.4.8 14.4.8 31.1l.1 30.3h-62.2l-62.3.1v-30.7c0-16.9.2-31 .4-31.2.7-.7 122.5-.3 123.2.4zm.8 154.9l.1 30.8H476v-62l62.2.2 62.1.3.1 30.7zm-.3 94c0 .7.2 14.7.2 31l.2 29.8H476v-62h62c48.9 0 62 .3 62.1 1.2zm0 124.2c.2 3.1.4 59.2.2 60.1-.2.7-21.7 1-62.1.9h-61.7l-.3-31.1-.2-31 62-.1c45.8 0 62 .3 62.1 1.2zM113.5 196.9c-22.9 10.8-23.4 42-1 53.9l5 2.7 87 .3 87 .2v-59.5l-86-.3-86-.2-6 2.9zM75.8 320.2c-10.5 1.3-18.9 7.3-23.5 16.6-2.3 4.7-2.8 7-2.8 13.2 0 9.6 3.4 17.1 10.3 22.8 8.8 7.2-.1 6.7 121.7 6.7h110v-29.4c0-22.1-.3-29.5-1.2-29.8-2-.8-208.4-.9-214.5-.1zM124.5 446.1c-11.8 1.1-20.4 6.8-25.7 16.9-1.9 3.7-2.3 6-2.3 13 .1 7.2.5 9.3 2.7 13.5 3.1 5.9 7.6 10.4 13.8 13.6l4.5 2.4 87 .3 87 .3v-29.5c0-16.2-.3-29.7-.7-30.1-.9-.9-156.9-1.2-166.3-.4zM197 572c-18.1 1.8-30.2 18.3-26.8 36.6 1.5 7.8 8.5 16.5 16.7 20.6 4.6 2.3 4.6 2.3 54.9 2.6 27.6.2 50.2-.1 50.3-.5.1-.4.2-14 .3-30.1 0-18.8-.3-29.2-.9-29.3-4.8-.4-90.3-.3-94.5.1z"/></svg>